<?xml version="1.0" standalone="no"?>
<!DOCTYPE svg PUBLIC "-//W3C//DTD SVG 20010904//EN"
 "http://www.w3.org/TR/2001/REC-SVG-20010904/DTD/svg10.dtd">
<svg version="1.0" xmlns="http://www.w3.org/2000/svg"
 width="256.000000pt" height="256.000000pt" viewBox="0 0 256.000000 256.000000"
 preserveAspectRatio="xMidYMid meet">
<metadata>
Created by potrace 1.14, written by Peter Selinger 2001-2017
</metadata>
<g transform="translate(0.000000,256.000000) scale(0.100000,-0.100000)"
fill="#000000" stroke="none">
<path d="M1009 2518 c0 -2 -15 -59 -32 -127 l-32 -123 -62 -28 -62 -28 -105
64 c-58 35 -111 64 -118 64 -7 0 -97 -84 -200 -187 l-187 -188 64 -105 c35
-58 64 -112 64 -121 1 -9 -10 -41 -23 -71 l-25 -55 -123 -30 -123 -29 0 -274
0 -273 80 -19 c174 -42 165 -36 200 -116 l31 -71 33 16 c25 13 32 21 28 37 -9
38 -59 151 -70 158 -6 4 -60 19 -119 34 l-108 26 0 209 c0 115 1 209 3 209 1
0 54 13 117 29 l114 29 28 67 c15 38 33 81 41 98 14 28 13 32 -31 106 -25 42
-53 90 -62 106 l-18 30 148 146 147 146 105 -62 c71 -42 110 -60 119 -54 8 5
51 23 96 40 l83 32 14 51 c8 28 22 81 32 119 l16 67 84 0 84 0 0 -280 c0 -154
-3 -280 -7 -281 -150 -16 -266 -72 -373 -179 -127 -127 -183 -266 -176 -439 6
-161 58 -283 170 -400 96 -99 233 -164 379 -180 4 -1 7 -127 7 -281 l0 -280
-85 0 -84 0 -10 38 c-6 20 -19 72 -28 116 -13 60 -22 80 -37 87 -12 4 -57 23
-101 42 l-80 33 -104 -62 -104 -62 -153 154 c-85 85 -158 154 -162 154 -12 0
-52 -35 -52 -46 0 -5 81 -90 179 -188 144 -144 182 -176 192 -167 8 7 57 38
110 70 l97 58 63 -27 63 -26 23 -90 c13 -49 28 -106 34 -126 l10 -38 154 0
155 0 0 50 0 50 58 -40 c100 -68 206 -77 315 -27 51 23 137 98 137 119 0 4 13
8 30 8 43 0 119 28 167 62 59 43 100 106 121 184 13 53 25 75 52 100 20 18 46
52 58 77 14 28 33 49 51 57 43 17 108 85 138 143 32 62 39 159 17 232 -14 47
-13 49 19 114 28 58 32 75 32 151 0 72 -4 94 -28 145 -16 33 -37 69 -47 80
-16 17 -18 26 -9 65 24 104 -18 244 -97 324 -39 39 -143 96 -176 96 -9 0 -26
16 -38 35 -25 40 -97 105 -117 105 -21 0 -53 38 -53 63 0 34 -56 140 -93 177
-77 77 -168 111 -278 106 -80 -4 -172 -43 -226 -97 l-33 -31 0 66 0 66 -155 0
c-85 0 -155 -1 -156 -2z m231 -1238 l0 -519 -32 5 c-218 38 -385 191 -433 396
-17 76 -14 200 9 273 37 120 139 242 253 302 52 28 148 59 191 62 9 1 12 -109
12 -519z"/>
<path d="M1070 2050 c-137 -37 -253 -104 -353 -204 -161 -161 -240 -360 -233
-586 4 -119 14 -169 57 -281 l30 -78 35 16 c19 9 34 20 34 24 0 4 -9 29 -21
56 -57 131 -72 315 -38 453 64 257 269 464 520 525 60 15 69 20 64 36 -3 11
-8 28 -11 39 -6 23 -1 23 -84 0z"/>
<path d="M657 839 l-27 -21 22 -31 c54 -76 167 -168 273 -221 70 -35 211 -80
225 -71 4 3 10 21 12 40 3 27 0 35 -12 35 -36 0 -185 61 -253 104 -41 25 -104
77 -141 116 -36 38 -67 70 -68 70 -2 0 -15 -10 -31 -21z"/>
</g>
</svg>
